<?xml version="1.0" encoding="UTF-8" standalone="no"?>
<!DOCTYPE svg PUBLIC "-//W3C//DTD SVG 1.1//EN"
 "http://www.w3.org/Graphics/SVG/1.1/DTD/svg11.dtd">
<!-- Generated by graphviz version 2.43.0 (0)
 -->
<!-- Title: %3 Pages: 1 -->
<svg width="343pt" height="165pt"
 viewBox="0.00 0.00 343.00 164.74" xmlns="http://www.w3.org/2000/svg" xmlns:xlink="http://www.w3.org/1999/xlink">
<g id="graph0" class="graph" transform="scale(1 1) rotate(0) translate(36 128.74)">
<title>%3</title>
<polygon fill="dimgray" stroke="transparent" points="-36,36 -36,-128.74 307,-128.74 307,36 -36,36"/>
<text text-anchor="middle" x="135.5" y="-77.54" font-family="Helvetica,sans-Serif" font-size="14.00">Sweep&#39;s Plan &amp; Progress</text>
<!-- start -->
<g id="node1" class="node">
<title>start</title>
</g>
<!-- 4d7394d0&#45;c089&#45;4261&#45;8b89&#45;32c471f10a88 -->
<g id="node3" class="node">
<title>4d7394d0&#45;c089&#45;4261&#45;8b89&#45;32c471f10a88</title>
<ellipse fill="yellow" stroke="black" cx="132.5" cy="-26.87" rx="79.81" ry="26.74"/>
<text text-anchor="middle" x="132.5" y="-30.67" font-family="Helvetica,sans-Serif" font-size="14.00">⋯ Create</text>
<text text-anchor="middle" x="132.5" y="-15.67" font-family="Helvetica,sans-Serif" font-size="14.00">app/about.tsx</text>
</g>
<!-- start&#45;&gt;4d7394d0&#45;c089&#45;4261&#45;8b89&#45;32c471f10a88 -->
<g id="edge1" class="edge">
<title>start&#45;&gt;4d7394d0&#45;c089&#45;4261&#45;8b89&#45;32c471f10a88</title>
<path fill="none" stroke="black" d="M1.34,-26.87C5.21,-26.87 21.95,-26.87 42.23,-26.87"/>
<polygon fill="black" stroke="black" points="42.44,-30.37 52.44,-26.87 42.44,-23.37 42.44,-30.37"/>
<text text-anchor="middle" x="26.8" y="-33.67" font-family="Helvetica,sans-Serif" font-size="14.00">Start</text>
</g>
<!-- end -->
<g id="node2" class="node">
<title>end</title>
</g>
<!-- 4d7394d0&#45;c089&#45;4261&#45;8b89&#45;32c471f10a88&#45;&gt;end -->
<g id="edge2" class="edge">
<title>4d7394d0&#45;c089&#45;4261&#45;8b89&#45;32c471f10a88&#45;&gt;end</title>
<path fill="none" stroke="black" d="M212.78,-26.87C231.48,-26.87 249.04,-26.87 259.77,-26.87"/>
<polygon fill="black" stroke="black" points="259.8,-30.37 269.8,-26.87 259.8,-23.37 259.8,-30.37"/>
<text text-anchor="middle" x="241.2" y="-33.67" font-family="Helvetica,sans-Serif" font-size="14.00">Finish</text>
</g>
</g>
</svg>
